<?xml version="1.0" encoding="UTF-8" standalone="no"?>
<!-- Created with Inkscape (http://www.inkscape.org/) -->

<svg
   xmlns:dc="http://purl.org/dc/elements/1.1/"
   xmlns:cc="http://creativecommons.org/ns#"
   xmlns:rdf="http://www.w3.org/1999/02/22-rdf-syntax-ns#"
   xmlns:svg="http://www.w3.org/2000/svg"
   xmlns="http://www.w3.org/2000/svg"
   xmlns:sodipodi="http://sodipodi.sourceforge.net/DTD/sodipodi-0.dtd"
   xmlns:inkscape="http://www.inkscape.org/namespaces/inkscape"
   width="672.51135"
   height="130.86116"
   id="svg3023"
   version="1.1"
   inkscape:version="0.48.2 r9819"
   sodipodi:docname="SWRBWkurz_Logo.svg">
  <defs
     id="defs3025">
    <inkscape:perspective
       sodipodi:type="inkscape:persp3d"
       inkscape:vp_x="0 : 526.18109 : 1"
       inkscape:vp_y="0 : 1000 : 0"
       inkscape:vp_z="744.09448 : 526.18109 : 1"
       inkscape:persp3d-origin="372.04724 : 350.78739 : 1"
       id="perspective3031" />
    <inkscape:perspective
       id="perspective3006"
       inkscape:persp3d-origin="0.5 : 0.33333333 : 1"
       inkscape:vp_z="1 : 0.5 : 1"
       inkscape:vp_y="0 : 1000 : 0"
       inkscape:vp_x="0 : 0.5 : 1"
       sodipodi:type="inkscape:persp3d" />
    <inkscape:perspective
       sodipodi:type="inkscape:persp3d"
       inkscape:vp_x="0 : 0.5 : 1"
       inkscape:vp_y="0 : 1000 : 0"
       inkscape:vp_z="1 : 0.5 : 1"
       inkscape:persp3d-origin="0.5 : 0.33333333 : 1"
       id="perspective2985" />
    <inkscape:perspective
       id="perspective3020"
       inkscape:persp3d-origin="372.04724 : 350.78739 : 1"
       inkscape:vp_z="744.09448 : 526.18109 : 1"
       inkscape:vp_y="0 : 1000 : 0"
       inkscape:vp_x="0 : 526.18109 : 1"
       sodipodi:type="inkscape:persp3d" />
  </defs>
  <sodipodi:namedview
     id="base"
     pagecolor="#ffffff"
     bordercolor="#666666"
     borderopacity="1.0"
     inkscape:pageopacity="0.0"
     inkscape:pageshadow="2"
     inkscape:zoom="0.97153255"
     inkscape:cx="336.25568"
     inkscape:cy="65.43058"
     inkscape:document-units="px"
     inkscape:current-layer="layer1"
     showgrid="false"
     inkscape:window-width="1280"
     inkscape:window-height="753"
     inkscape:window-x="-4"
     inkscape:window-y="-4"
     inkscape:window-maximized="1" />
  <metadata
     id="metadata3028">
    <rdf:RDF>
      <cc:Work
         rdf:about="">
        <dc:format>image/svg+xml</dc:format>
        <dc:type
           rdf:resource="http://purl.org/dc/dcmitype/StillImage" />
        <dc:title />
      </cc:Work>
    </rdf:RDF>
  </metadata>
  <g
     inkscape:label="Ebene 1"
     inkscape:groupmode="layer"
     id="layer1"
     transform="translate(-46.004992,-538.36017)">
    <g
       id="g2941"
       transform="matrix(0.55990976,0,0,0.55990976,-408.06828,487.07919)"
       style="stroke:#000000;fill:#000000">
      <g
         transform="matrix(3.543307,0,0,3.543307,793.27786,62.494194)"
         style="fill:#000000;fill-rule:evenodd;stroke:#000000"
         id="g1939">
        <path
           d="m 138.323,29.8199 c 0,-4.6562 -2.7403,-7.4682 -9.193,-7.4682 -1.4141,0 -3.0051,0.0884 -3.8007,0.1763 l 1e-4,15.1991 c 0.707,0.0877 2.1214,0.1756 3.4471,0.1756 5.834,-1e-4 9.5465,-3.0749 9.5465,-8.0827 l 0,-10e-5 z m 18.355,41.0329 -16.683,0 -14.1353,-23.1982 -0.5303,0 0,23.1982 -13.7229,0 0,-59.3537 c 5.014,-0.3528 11.4354,-0.4412 18.5843,-0.4412 14.0278,0 22.2082,5.0293 22.2082,17.62 1e-4,7.9948 -4.9247,14.4963 -12.844,16.4291 1.5837,2.2841 3.0795,4.4807 4.5754,6.677 l 12.5476,19.0688 0,0 z"
           style="fill:#000000;stroke:#000000"
           id="_47386248" />
        <path
           d="m 19.0518,71.7497 c -4.1272,0 -8.4493,-0.4409 -12.2254,-1.3227 L 7.4342,57.4222 c 3.337,1.2314 8.3684,2.5101 12.6737,2.5101 5.0343,0 8.6557,-2.111 8.6557,-6.333 C 28.7636,43.4842 5.4498,48.4951 5,28.7956 4.7453,17.6389 13.7829,10.2691 28.6749,10.2691 c 3.1622,0 7.1139,0.3509 10.8022,1.0525 l -0.0285,12.1136 c -3.337,-0.9675 -7.7872,-1.8528 -11.3035,-1.8528 -5.7408,0 -8.4794,2.4635 -8.4794,5.806 0,9.2351 23.7634,5.7172 23.7634,24.2759 0,11.5312 -9.221,20.0854 -24.3773,20.0854 l 0,0 0,0 z"
           style="fill:#000000;stroke:#000000"
           id="_47674960" />
        <polygon
           points="79.3353,11.5056 71.7915,11.5056 68.6546,11.5056 62.6724,48.2621 56.6902,11.5056 42.8657,11.5056 53.3575,70.8816 58.1628,70.8816 67.182,70.8816 68.8436,70.8816 75.5633,32.7718 82.2833,70.8816 83.9448,70.8816 92.964,70.8816 97.7694,70.8816 108.261,11.5056 94.4367,11.5056 94.4367,11.5056 88.4544,48.2621 82.4724,11.5056 "
           style="fill:#000000;stroke:#000000"
           id="_159878992" />
      </g>
      <g
         transform="matrix(3.543307,0,0,3.543307,793.27786,62.494194)"
         style="fill:#000000;fill-rule:evenodd;stroke:#000000"
         id="g1944">
        <polygon
           points="178.284,41.1911 166.761,52.7142 166.761,74.1714 199.471,41.1911 166.761,8.2109 166.761,8.2109 166.761,29.6681 "
           style="fill:#000000;stroke:#000000"
           id="_47267192" />
        <polygon
           points="207.674,41.1911 196.151,52.7142 196.151,74.1714 228.861,41.1911 196.151,8.2109 196.151,8.2109 196.151,29.6681 "
           style="fill:#000000;stroke:#000000"
           id="_46559656" />
      </g>
    </g>
    <path
       style="font-size:161.09416199000000000px;font-style:normal;font-variant:normal;font-weight:bold;font-stretch:normal;text-align:start;line-height:100%;writing-mode:lr-tb;text-anchor:start;fill:#000000;fill-opacity:1;stroke:#000000;stroke-width:8.33288192999999920;stroke-linecap:butt;stroke-linejoin:miter;stroke-miterlimit:4;stroke-opacity:1;font-family:Segoe Media Center Semibold;-inkscape-font-specification:Segoe Media Center Semibold Bold"
       d="m 689.06822,658.51508 -18.07665,0 -17.36915,-75.9567 c -0.68621,-2.99055 -1.17944,-6.84288 -1.47949,-11.55699 l -0.2574,0 c -0.38604,4.7648 -0.90065,8.61714 -1.54392,11.55699 l -17.24039,75.9567 -18.33403,0 -25.98922,-109.03095 16.7258,0 17.17606,78.99802 c 0.60031,2.68652 1.02921,6.61485 1.28653,11.78507 l 0.38605,0 c 0.17151,-2.93991 0.75043,-6.91896 1.7369,-11.93715 l 18.59133,-78.84594 16.33973,0 17.62644,79.75835 c 0.68605,3.04132 1.17926,6.66555 1.4796,10.87267 l 0.25731,0 c 0.1715,-3.59886 0.60032,-7.37516 1.28662,-11.32888 l 16.59704,-79.30214 16.08253,0 -25.28169,109.03095 z"
       id="text3595-5" />
    <g
       transform="scale(1.0671482,0.93707696)"
       style="font-size:168.77784728999998000px;font-style:normal;font-variant:normal;font-weight:bold;font-stretch:normal;text-align:start;line-height:100%;writing-mode:lr-tb;text-anchor:start;fill:#000000;fill-opacity:1;stroke:#000000;stroke-width:7.12807034999999980;stroke-miterlimit:4;stroke-opacity:1;font-family:Segoe Media Center Semibold;-inkscape-font-specification:Segoe Media Center Semibold Bold"
       id="text3653">
      <path
         d="m 469.35495,703.6991 0,-118.17746 37.33221,0 c 11.53749,1.2e-4 20.52028,2.48618 26.94842,7.4582 6.42798,4.97224 9.642,11.55138 9.64209,19.73745 -9e-5,6.31826 -1.90927,11.93595 -5.72757,16.85306 -3.81845,4.91726 -8.99661,8.41973 -15.53448,10.50741 l 0,0.32964 c 8.51573,1.15382 15.12235,4.28544 19.81986,9.39486 4.69734,5.10954 7.04605,11.59254 7.04614,19.44901 -9e-5,10.38382 -3.85967,18.72107 -11.57875,25.01176 -7.71924,6.29071 -17.48494,9.43607 -29.29713,9.43607 z m 19.61383,-101.94248 0,32.71719 12.6089,0 c 6.64777,7e-5 11.79845,-1.56574 15.45207,-4.69743 3.65349,-3.13155 5.48027,-7.58174 5.48034,-13.35059 -7e-5,-4.88963 -1.7307,-8.55692 -5.1919,-11.00188 -3.46133,-2.44476 -8.65322,-3.66719 -15.57569,-3.66729 z m 0,48.95217 0,36.75533 16.56463,0 c 7.08729,10e-6 12.62256,-1.70315 16.60583,-5.10949 3.98312,-3.4063 5.97472,-7.9389 5.9748,-13.59782 -8e-5,-5.60391 -2.04662,-10.0129 -6.13963,-13.22698 -4.09314,-3.21398 -10.15035,-4.82099 -18.17163,-4.82104 z"
         style="fill:#000000;stroke:#000000"
         id="path2956" />
    </g>
  </g>
</svg>
